<svg xmlns="http://www.w3.org/2000/svg" xmlns:xlink="http://www.w3.org/1999/xlink" width="18.664" height="16.873" viewBox="0 0 18.664 16.873"><defs><style>.a{fill:none;}.b{clip-path:url(#a);}.c{fill:#333434;}</style><clipPath id="a"><rect class="a" width="18.664" height="16.873"/></clipPath></defs><g class="b"><path class="c" d="M19.709,10.762l-3.33,3.329a.211.211,0,0,1-.361-.149V12.668a.211.211,0,0,0-.211-.212H9.531a.5.5,0,0,1-.495-.495v-3a.5.5,0,0,1,.495-.495h6.276a.211.211,0,0,0,.211-.212V6.985a.211.211,0,0,1,.361-.149l3.33,3.329A.424.424,0,0,1,19.709,10.762Zm-6.186,5.227a.3.3,0,0,1-.3.3H7.315v1.288h6.757a.6.6,0,0,0,.6-.6v-3.1H13.523ZM7.315,2.722v1.1h5.908a.3.3,0,0,1,.3.3V7.131h1.146V3.319a.6.6,0,0,0-.6-.6Zm-5.731.656L6.527,1.77a.6.6,0,0,1,.788.572V18.011a.6.6,0,0,1-.788.572L1.584,16.975a.6.6,0,0,1-.416-.572V3.951A.6.6,0,0,1,1.584,3.378Zm3.182,8.394a.568.568,0,0,0,1.136,0V9.238a.568.568,0,0,0-1.136,0Z" transform="translate(-1.168 -1.74)"/></g></svg>