<svg xmlns="http://www.w3.org/2000/svg" xmlns:xlink="http://www.w3.org/1999/xlink" width="18.664" height="16.874" viewBox="0 0 18.664 16.874"><defs><style>.a{fill:none;}.b{clip-path:url(#a);}.c{fill:#007784;}</style><clipPath id="a"><rect class="a" width="18.664" height="16.873"/></clipPath></defs><g class="b"><path class="c" d="M19.709,37.365l-3.33,3.329a.211.211,0,0,1-.361-.149V39.271a.211.211,0,0,0-.211-.212H9.531a.5.5,0,0,1-.495-.495V35.569a.5.5,0,0,1,.495-.495h6.276a.211.211,0,0,0,.211-.212V33.588a.211.211,0,0,1,.361-.149l3.33,3.329A.424.424,0,0,1,19.709,37.365Zm-6.186,5.227a.3.3,0,0,1-.3.3H7.315v1.288h6.757a.6.6,0,0,0,.6-.6v-3.1H13.523ZM7.315,29.326v1.1h5.908a.3.3,0,0,1,.3.3v3.012h1.146V29.923a.6.6,0,0,0-.6-.6Zm-5.731.655,4.943-1.608a.6.6,0,0,1,.788.573V44.614a.6.6,0,0,1-.788.573L1.584,43.578a.6.6,0,0,1-.416-.572V30.554A.6.6,0,0,1,1.584,29.981Zm3.182,8.394a.568.568,0,1,0,1.136,0V35.841a.568.568,0,1,0-1.136,0Z" transform="translate(-1.168 -28.343)"/></g></svg>